<svg xmlns="http://www.w3.org/2000/svg" viewBox="0 0 235.54 207.1"><defs><style>.cls-1{stroke:#fff;}.cls-1,.cls-3{stroke-miterlimit:10;}.cls-2,.cls-3{fill:#f15a24;}.cls-3{stroke:#f15a24;stroke-width:3px;}.cls-4{font-size:16px;fill:#fff;font-family:Raleway-Light, Raleway;}.cls-5{letter-spacing:-0.03em;}.cls-6{letter-spacing:-0.02em;}.cls-7{letter-spacing:0em;}</style></defs><title>Asset 1</title><g id="Layer_2" data-name="Layer 2"><g id="Layer_1-2" data-name="Layer 1"><circle class="cls-1" cx="103.55" cy="103.55" r="103.05"/><line class="cls-2" x1="191.88" y1="140.97" x2="235.54" y2="140.97"/><polygon class="cls-2" points="111.56 26.13 25.56 140.97 41.56 140.97 127.56 26.13 111.56 26.13"/><polygon class="cls-2" points="122.32 58.13 60.86 140.97 75.36 140.97 136.82 58.13 122.32 58.13"/><rect class="cls-2" x="123.32" y="58.13" width="13.31" height="82.84"/><path class="cls-2" d="M161.8,102.4a17.73,17.73,0,0,0-2.1-5,9.71,9.71,0,0,0-3.49-3.25,10.44,10.44,0,0,0-5.14-1.24l-15.12,0-.12,48.11,15.12,0a9.21,9.21,0,0,0,5.06-1.36,10.71,10.71,0,0,0,3.51-3.62,20.24,20.24,0,0,0,2.16-5.65,48.34,48.34,0,0,0,1.13-6.93q.31-3.53.33-7.9,0-3.92-.26-7A36.26,36.26,0,0,0,161.8,102.4Z"/><path class="cls-2" d="M154.87,91.47a9.2,9.2,0,0,0,3.46-3.77,20.24,20.24,0,0,0,1.79-5.25,32.48,32.48,0,0,0,.57-6.23q.05-18-13.63-18.05l-11,0L136,92.77l13.57,0A10,10,0,0,0,154.87,91.47Z"/><line class="cls-3" x1="105.55" y1="53.52" x2="105.55" y2="84.63"/><text class="cls-4" transform="translate(35.39 166.77) scale(0.92 1)">MEGHAN<tspan class="cls-5" x="70.67" y="0">A</tspan><tspan x="81.07" y="0" xml:space="preserve">  B</tspan><tspan class="cls-6" x="100.06" y="0">O</tspan><tspan class="cls-7" x="111.82" y="0">WEN</tspan></text></g></g></svg>